<mxfile host="Electron" modified="2024-02-04T08:14:32.751Z" agent="Mozilla/5.0 (X11; Linux x86_64) AppleWebKit/537.36 (KHTML, like Gecko) draw.io/23.0.2 Chrome/120.0.6099.109 Electron/28.1.0 Safari/537.36" etag="7JnSQG39k-FUcTzEAp-Q" version="23.0.2" type="device">
  <diagram name="Page-1" id="pL3u6YdhrvLbvQvZMGSa">
    <mxGraphModel dx="987" dy="619" grid="1" gridSize="10" guides="1" tooltips="1" connect="1" arrows="1" fold="1" page="1" pageScale="1" pageWidth="850" pageHeight="1100" math="0" shadow="0">
      <root>
        <mxCell id="0" />
        <mxCell id="1" parent="0" />
        <mxCell id="Na1yNxLb1dY1ceYHJDD9-36" style="edgeStyle=orthogonalEdgeStyle;rounded=0;orthogonalLoop=1;jettySize=auto;html=1;entryX=0.5;entryY=0;entryDx=0;entryDy=0;" edge="1" parent="1" source="Na1yNxLb1dY1ceYHJDD9-20" target="Na1yNxLb1dY1ceYHJDD9-1">
          <mxGeometry relative="1" as="geometry" />
        </mxCell>
        <mxCell id="Na1yNxLb1dY1ceYHJDD9-20" value="" style="rounded=0;whiteSpace=wrap;html=1;" vertex="1" parent="1">
          <mxGeometry x="70" y="490" width="710" height="270" as="geometry" />
        </mxCell>
        <mxCell id="Na1yNxLb1dY1ceYHJDD9-1" value="" style="rounded=0;whiteSpace=wrap;html=1;" vertex="1" parent="1">
          <mxGeometry x="70" y="820" width="710" height="230" as="geometry" />
        </mxCell>
        <mxCell id="Na1yNxLb1dY1ceYHJDD9-2" value="Database" style="text;html=1;strokeColor=none;fillColor=none;align=center;verticalAlign=middle;whiteSpace=wrap;rounded=0;" vertex="1" parent="1">
          <mxGeometry x="395" y="1050" width="60" height="30" as="geometry" />
        </mxCell>
        <mxCell id="Na1yNxLb1dY1ceYHJDD9-8" value="Patient" style="text;html=1;strokeColor=none;fillColor=none;align=center;verticalAlign=middle;whiteSpace=wrap;rounded=0;" vertex="1" parent="1">
          <mxGeometry x="640" y="930" width="80" height="40" as="geometry" />
        </mxCell>
        <mxCell id="Na1yNxLb1dY1ceYHJDD9-14" value="" style="group" vertex="1" connectable="0" parent="1">
          <mxGeometry x="455" y="870" width="100" height="120" as="geometry" />
        </mxCell>
        <mxCell id="Na1yNxLb1dY1ceYHJDD9-7" value="" style="shape=cylinder3;whiteSpace=wrap;html=1;boundedLbl=1;backgroundOutline=1;size=15;" vertex="1" parent="Na1yNxLb1dY1ceYHJDD9-14">
          <mxGeometry width="100" height="120" as="geometry" />
        </mxCell>
        <mxCell id="Na1yNxLb1dY1ceYHJDD9-10" value="Patient" style="text;html=1;strokeColor=none;fillColor=none;align=center;verticalAlign=middle;whiteSpace=wrap;rounded=0;" vertex="1" parent="Na1yNxLb1dY1ceYHJDD9-14">
          <mxGeometry x="10" y="60" width="80" height="40" as="geometry" />
        </mxCell>
        <mxCell id="Na1yNxLb1dY1ceYHJDD9-15" value="" style="group" vertex="1" connectable="0" parent="1">
          <mxGeometry x="640" y="870" width="100" height="120" as="geometry" />
        </mxCell>
        <mxCell id="Na1yNxLb1dY1ceYHJDD9-9" value="" style="shape=cylinder3;whiteSpace=wrap;html=1;boundedLbl=1;backgroundOutline=1;size=15;" vertex="1" parent="Na1yNxLb1dY1ceYHJDD9-15">
          <mxGeometry width="100" height="120" as="geometry" />
        </mxCell>
        <mxCell id="Na1yNxLb1dY1ceYHJDD9-11" value="medical_history" style="text;html=1;strokeColor=none;fillColor=none;align=center;verticalAlign=middle;whiteSpace=wrap;rounded=0;" vertex="1" parent="Na1yNxLb1dY1ceYHJDD9-15">
          <mxGeometry x="10" y="60" width="80" height="40" as="geometry" />
        </mxCell>
        <mxCell id="Na1yNxLb1dY1ceYHJDD9-16" value="" style="group" vertex="1" connectable="0" parent="1">
          <mxGeometry x="280" y="870" width="100" height="120" as="geometry" />
        </mxCell>
        <mxCell id="Na1yNxLb1dY1ceYHJDD9-12" value="" style="shape=cylinder3;whiteSpace=wrap;html=1;boundedLbl=1;backgroundOutline=1;size=15;" vertex="1" parent="Na1yNxLb1dY1ceYHJDD9-16">
          <mxGeometry width="100" height="120" as="geometry" />
        </mxCell>
        <mxCell id="Na1yNxLb1dY1ceYHJDD9-13" value="Doctor" style="text;html=1;strokeColor=none;fillColor=none;align=center;verticalAlign=middle;whiteSpace=wrap;rounded=0;" vertex="1" parent="Na1yNxLb1dY1ceYHJDD9-16">
          <mxGeometry x="10" y="60" width="80" height="40" as="geometry" />
        </mxCell>
        <mxCell id="Na1yNxLb1dY1ceYHJDD9-19" value="" style="group" vertex="1" connectable="0" parent="1">
          <mxGeometry x="100" y="870" width="100" height="120" as="geometry" />
        </mxCell>
        <mxCell id="Na1yNxLb1dY1ceYHJDD9-4" value="" style="shape=cylinder3;whiteSpace=wrap;html=1;boundedLbl=1;backgroundOutline=1;size=15;" vertex="1" parent="Na1yNxLb1dY1ceYHJDD9-19">
          <mxGeometry width="100" height="120" as="geometry" />
        </mxCell>
        <mxCell id="Na1yNxLb1dY1ceYHJDD9-5" value="Hospital" style="text;html=1;strokeColor=none;fillColor=none;align=center;verticalAlign=middle;whiteSpace=wrap;rounded=0;" vertex="1" parent="Na1yNxLb1dY1ceYHJDD9-19">
          <mxGeometry x="10" y="60" width="80" height="40" as="geometry" />
        </mxCell>
        <mxCell id="Na1yNxLb1dY1ceYHJDD9-22" value="Redis Cache" style="rounded=0;whiteSpace=wrap;html=1;" vertex="1" parent="1">
          <mxGeometry x="680" y="535" width="80" height="180" as="geometry" />
        </mxCell>
        <mxCell id="Na1yNxLb1dY1ceYHJDD9-33" style="edgeStyle=orthogonalEdgeStyle;rounded=0;orthogonalLoop=1;jettySize=auto;html=1;entryX=0.5;entryY=0;entryDx=0;entryDy=0;" edge="1" parent="1" source="Na1yNxLb1dY1ceYHJDD9-23" target="Na1yNxLb1dY1ceYHJDD9-30">
          <mxGeometry relative="1" as="geometry" />
        </mxCell>
        <mxCell id="Na1yNxLb1dY1ceYHJDD9-23" value="Web Interface" style="rounded=0;whiteSpace=wrap;html=1;" vertex="1" parent="1">
          <mxGeometry x="70" y="160" width="710" height="70" as="geometry" />
        </mxCell>
        <mxCell id="Na1yNxLb1dY1ceYHJDD9-34" style="edgeStyle=orthogonalEdgeStyle;rounded=0;orthogonalLoop=1;jettySize=auto;html=1;entryX=0.5;entryY=0;entryDx=0;entryDy=0;" edge="1" parent="1" source="Na1yNxLb1dY1ceYHJDD9-30" target="Na1yNxLb1dY1ceYHJDD9-20">
          <mxGeometry relative="1" as="geometry" />
        </mxCell>
        <mxCell id="Na1yNxLb1dY1ceYHJDD9-30" value="Load Balancer" style="rounded=0;whiteSpace=wrap;html=1;" vertex="1" parent="1">
          <mxGeometry x="70" y="342" width="710" height="70" as="geometry" />
        </mxCell>
        <mxCell id="Na1yNxLb1dY1ceYHJDD9-37" value="" style="group" vertex="1" connectable="0" parent="1">
          <mxGeometry x="90" y="560" width="440" height="140" as="geometry" />
        </mxCell>
        <mxCell id="Na1yNxLb1dY1ceYHJDD9-31" value="" style="rounded=0;whiteSpace=wrap;html=1;" vertex="1" parent="Na1yNxLb1dY1ceYHJDD9-37">
          <mxGeometry width="440" height="140" as="geometry" />
        </mxCell>
        <mxCell id="Na1yNxLb1dY1ceYHJDD9-24" value="Application Server" style="whiteSpace=wrap;html=1;aspect=fixed;" vertex="1" parent="Na1yNxLb1dY1ceYHJDD9-37">
          <mxGeometry x="20" y="10" width="80" height="80" as="geometry" />
        </mxCell>
        <mxCell id="Na1yNxLb1dY1ceYHJDD9-25" value="Application Server" style="whiteSpace=wrap;html=1;aspect=fixed;" vertex="1" parent="Na1yNxLb1dY1ceYHJDD9-37">
          <mxGeometry x="335" y="10" width="80" height="80" as="geometry" />
        </mxCell>
        <mxCell id="Na1yNxLb1dY1ceYHJDD9-26" value="Application Server" style="whiteSpace=wrap;html=1;aspect=fixed;" vertex="1" parent="Na1yNxLb1dY1ceYHJDD9-37">
          <mxGeometry x="130" y="10" width="80" height="80" as="geometry" />
        </mxCell>
        <mxCell id="Na1yNxLb1dY1ceYHJDD9-29" style="edgeStyle=orthogonalEdgeStyle;rounded=0;orthogonalLoop=1;jettySize=auto;html=1;entryX=1;entryY=0.5;entryDx=0;entryDy=0;dashed=1;shape=link;strokeColor=default;" edge="1" parent="Na1yNxLb1dY1ceYHJDD9-37" source="Na1yNxLb1dY1ceYHJDD9-25" target="Na1yNxLb1dY1ceYHJDD9-26">
          <mxGeometry relative="1" as="geometry" />
        </mxCell>
        <mxCell id="Na1yNxLb1dY1ceYHJDD9-32" value="Application Server" style="text;html=1;strokeColor=none;fillColor=none;align=center;verticalAlign=middle;whiteSpace=wrap;rounded=0;" vertex="1" parent="Na1yNxLb1dY1ceYHJDD9-37">
          <mxGeometry x="190" y="100" width="60" height="30" as="geometry" />
        </mxCell>
        <mxCell id="Na1yNxLb1dY1ceYHJDD9-45" style="rounded=0;orthogonalLoop=1;jettySize=auto;html=1;exitX=1;exitY=0.5;exitDx=0;exitDy=0;" edge="1" parent="1" source="Na1yNxLb1dY1ceYHJDD9-31" target="Na1yNxLb1dY1ceYHJDD9-22">
          <mxGeometry relative="1" as="geometry" />
        </mxCell>
      </root>
    </mxGraphModel>
  </diagram>
</mxfile>
